PathFileType	4	(X/Y/Z)	C:\Users\Basilio\Documents\Thesis Gigler\squatting_fais\c3dfiles\038\SLS_back_pre5\markers_experimental.trc
DataRate	CameraRate	NumFrames	NumMarkers	Units	OrigDataRate	OrigDataStartFrame	OrigNumFrames
200.000000	200.000000	4	63	mm	200.000000	418	1674
Frame#	Time	FHD			LBHD			RBHD			C7			T10			CLAV			LSHO			LUUPA			LMUPA			LDUPA			LLEP			LMEP			LRAD			LUL			LRFIN			RSHO			RUPA1			RMUPA			RDUPA			RLEP			RMEP			RRAD			RUL			RUFIN			LASI			RASI			USACR			LSACR			RSACR			LTHI1			LTHI2			LTHI3			LTHI4			LLFC			LMFC			LTIB1			LTIB2			LTIB3			LTIB4			LLMAL			LMMAL			LHEE			LMT1			LMT2			LMT5			RTHI			RTHI2			RTHI3			RTHI4			RLFC			RMFC			RTIB1			RTIB2			RTIB3			RTIB4			RLMAL			RMMAL			RHEE			RMT1			RMT2			RMT5			*61			*62			
		X1	Y1	Z1	X2	Y2	Z2	X3	Y3	Z3	X4	Y4	Z4	X5	Y5	Z5	X6	Y6	Z6	X7	Y7	Z7	X8	Y8	Z8	X9	Y9	Z9	X10	Y10	Z10	X11	Y11	Z11	X12	Y12	Z12	X13	Y13	Z13	X14	Y14	Z14	X15	Y15	Z15	X16	Y16	Z16	X17	Y17	Z17	X18	Y18	Z18	X19	Y19	Z19	X20	Y20	Z20	X21	Y21	Z21	X22	Y22	Z22	X23	Y23	Z23	X24	Y24	Z24	X25	Y25	Z25	X26	Y26	Z26	X27	Y27	Z27	X28	Y28	Z28	X29	Y29	Z29	X30	Y30	Z30	X31	Y31	Z31	X32	Y32	Z32	X33	Y33	Z33	X34	Y34	Z34	X35	Y35	Z35	X36	Y36	Z36	X37	Y37	Z37	X38	Y38	Z38	X39	Y39	Z39	X40	Y40	Z40	X41	Y41	Z41	X42	Y42	Z42	X43	Y43	Z43	X44	Y44	Z44	X45	Y45	Z45	X46	Y46	Z46	X47	Y47	Z47	X48	Y48	Z48	X49	Y49	Z49	X50	Y50	Z50	X51	Y51	Z51	X52	Y52	Z52	X53	Y53	Z53	X54	Y54	Z54	X55	Y55	Z55	X56	Y56	Z56	X57	Y57	Z57	X58	Y58	Z58	X59	Y59	Z59	X60	Y60	Z60	X61	Y61	Z61	X62	Y62	Z62	X63	Y63	Z63	

419	2.09	-231.2797546386719	1773.667724609375	-1054.145263671875	-384.6134643554689	1716.431396484375	-1115.260620117188	-376.7387390136719	1703.894653320313	-970.7896118164065	-421.6043701171876	1533.398803710938	-1042.538330078125	-409.2951049804689	1253.83935546875	-1029.383666992188	-278.8923645019532	1517.697509765625	-1054.369262695313	-350.3416748046876	1553.902954101563	-1194.57861328125	-193.7125396728516	1485.422119140625	-1331.34716796875	-165.7116851806641	1522.507446289063	-1311.191650390625	-126.2203521728516	1494.851806640625	-1345.848876953125	-62.6615333557129	1499.223388671875	-1352.07958984375	-49.09426498413087	1426.7978515625	-1324.751953125	216.3458709716797	1522.266845703125	-1231.171264648438	229.2340698242188	1524.321044921875	-1302.216918945313	287.1143798828126	1561.265991210938	-1215.160766601563	-331.0915222167969	1550.43115234375	-910.2300415039065	-169.3504180908203	1526.039672851563	-797.1242675781252	-136.1378479003907	1541.59423828125	-829.2524414062502	-100.8437576293946	1524.73388671875	-782.6165161132815	-27.00799942016602	1526.283203125	-775.7145996093752	-17.01745796203614	1450.710693359375	-799.723083496094	245.3995513916016	1550.038330078125	-869.8636474609377	258.5107116699219	1556.89453125	-800.5274658203127	320.2439880371094	1593.077392578125	-873.4924926757815	-233.6446228027344	1062.058959960938	-1131.014404296875	-254.3266754150391	1084.223388671875	-881.1875610351565	-412.5479125976564	1117.940551757813	-1020.312866210938	-423.6085815429689	1086.97216796875	-1047.12451171875	-426.841033935547	1089.185546875	-990.7875976562502	-267.8988037109376	739.3710937500001	-1164.522705078125	-238.6438903808594	660.4999389648439	-1151.042358398438	-192.9501037597657	666.6766967773439	-1128.48388671875	-267.3640747070313	612.9277954101564	-1129.948852539063	-265.4362182617188	551.0493774414064	-1117.090454101563	-257.5461730957032	550.8550415039064	-997.9278564453127	-250.4490356445313	364.1054992675782	-1031.862060546875	-298.2257995605469	322.2622985839844	-1094.176025390625	-263.0925292968751	316.3824768066407	-1064.73681640625	-284.5728149414063	241.3598175048829	-1030.209838867188	-381.6467895507813	117.5668487548828	-1040.268188476563	-341.5699768066407	134.6384887695313	-970.3187255859377	-432.5027770996095	100.4925231933594	-983.2333984375002	-233.8545074462891	48.1517791748047	-976.409118652344	-225.3536834716797	45.63806152343751	-1026.4921875	-271.2795104980469	33.98688507080079	-1073.298706054688	-284.1383056640626	812.5925292968752	-805.722595214844	-244.8021240234376	758.8059692382814	-794.2031250000002	-212.0448913574219	761.0455322265626	-797.732849121094	-269.6716003417969	676.4727172851564	-799.248962402344	-262.9077758789063	571.1553955078126	-806.9028320312502	-256.4613342285157	557.8695068359376	-919.729187011719	-381.3634338378907	448.3868408203126	-835.075866699219	-490.4801635742189	486.3922424316407	-819.0703125000002	-466.3692016601564	445.1164550781251	-821.098327636719	-503.5234680175782	411.8652648925782	-853.3057861328127	-638.9292602539064	421.6621704101564	-843.761413574219	-613.3472900390626	388.3376770019532	-916.868103027344	-682.0950927734376	459.6351013183595	-920.9495239257815	-653.8399658203126	248.4660186767579	-884.7723388671877	-659.0827636718751	253.9494628906251	-837.7709960937502	-695.0097045898439	295.4361877441407	-804.915466308594	nan	nan	nan	nan	nan	nan	
420	2.095	-232.6013641357422	1773.949951171875	-1054.614990234375	-384.3924865722657	1716.246337890625	-1115.37939453125	-376.4925231933594	1703.619262695313	-970.8718872070315	-421.4678039550782	1533.315673828125	-1042.64453125	-409.0133361816407	1253.76708984375	-1029.354614257813	-278.7831420898438	1517.553466796875	-1054.40478515625	-350.0498352050782	1553.81640625	-1194.64501953125	-193.4572906494141	1485.332641601563	-1331.477783203125	-165.5256042480469	1522.416748046875	-1311.241333007813	-125.9537200927735	1494.854736328125	-1345.945556640625	-63.01753616333009	1499.630126953125	-1352.226684570313	-48.86389541625978	1426.833862304688	-1324.851928710938	216.6149291992188	1522.535766601563	-1231.210571289063	229.4942626953126	1524.497192382813	-1302.310668945313	287.3215942382813	1561.423217773438	-1215.295043945313	-330.8600769042969	1550.389770507813	-910.3655395507815	-169.1934356689453	1525.972534179688	-797.160827636719	-135.9432373046875	1541.577392578125	-829.2835083007815	-100.5792617797852	1524.7607421875	-782.6741943359377	-26.73641967773438	1526.267211914063	-775.7353515625002	-16.80057334899903	1450.76513671875	-799.6859130859377	245.5432739257813	1549.908447265625	-869.8153076171877	258.3487854003907	1556.651123046875	-800.768005371094	320.4849548339844	1593.092407226563	-873.5654907226565	-233.5266723632813	1061.979858398438	-1131.195556640625	-254.1211853027344	1084.013793945313	-881.3267211914065	-412.4822998046876	1117.370727539063	-1020.359436035156	-423.5073242187501	1086.912353515625	-1047.079223632813	-426.7703552246095	1089.138305664063	-990.7503662109377	-267.7190856933594	739.3043212890626	-1164.570678710938	-238.4718475341797	660.3939819335939	-1151.1181640625	-192.7342224121094	666.5968627929689	-1128.604248046875	-266.7383422851563	612.4821166992189	-1130.0224609375	-265.2334289550782	550.9251708984376	-1117.184448242188	-257.2318725585938	550.8407592773439	-998.0599365234377	-250.3123779296876	364.0391845703126	-1031.895629882813	-298.0646667480469	322.1828308105469	-1094.216918945313	-262.8059082031251	316.2388305664063	-1064.72607421875	-284.5161437988282	241.3475341796876	-1030.264282226563	-382.1939392089844	117.5880661010742	-1040.496948242188	-341.6065979003907	134.6189880371094	-970.3161621093752	-432.5256652832032	100.4328079223633	-983.3162231445315	-233.8833465576172	48.14902114868165	-976.3680419921877	-225.4254455566407	45.66011428833009	-1026.49853515625	-271.2970275878907	33.95940780639649	-1073.315307617188	-284.4502868652344	812.4531860351565	-805.718933105469	-245.3209075927735	758.5491943359376	-794.1123657226565	-212.5370483398438	760.7367553710939	-797.7984008789065	-270.2531127929688	676.3864746093751	-799.2707519531252	-263.8119506835938	571.0382080078126	-806.7683105468752	-257.3775024414063	557.5424804687501	-919.6565551757815	-382.6718444824219	448.1169738769532	-835.470642089844	-491.5011291503907	486.3447875976564	-819.0720214843752	-467.4595947265626	445.0237426757814	-820.8925781250002	-504.5495605468751	411.9285888671876	-853.1910400390627	-639.8114624023439	421.8255004882814	-843.7075805664065	-614.3566894531251	388.0797424316407	-916.7830810546877	-682.6818847656251	460.025848388672	-920.7938232421877	-655.5068359375001	248.853256225586	-885.220886230469	-661.1276855468751	254.1749114990235	-838.4985961914065	-696.5150756835939	295.1448974609376	-805.230407714844	nan	nan	nan	nan	nan	nan	
421	2.1	-232.3910217285157	1773.833740234375	-1054.721923828125	-384.2288818359376	1716.164184570313	-1115.475952148438	-376.2208862304688	1703.546875	-970.9874267578127	-421.2835388183595	1533.149536132813	-1042.650146484375	-408.8195800781251	1253.658447265625	-1029.372314453125	-278.6053466796876	1517.400390625	-1054.4072265625	-349.8063659667969	1553.662353515625	-1194.727416992188	-193.2025756835938	1485.31396484375	-1331.527709960938	-165.265121459961	1522.362915039063	-1311.329956054688	-125.7639923095703	1494.862426757813	-1345.99169921875	-62.78126144409181	1499.6220703125	-1352.271728515625	-48.55211257934572	1426.880126953125	-1324.956176757813	216.5137634277344	1522.662719726563	-1231.413696289063	229.7702636718751	1524.670166015625	-1302.417724609375	287.5983886718751	1561.581909179688	-1215.451049804688	-330.6414489746094	1550.288818359375	-910.4096679687502	-169.0471343994141	1526.033569335938	-797.1553344726565	-135.6054992675782	1541.610229492188	-829.3869628906252	-100.25537109375	1524.739135742188	-782.7498779296877	-26.46895027160645	1526.228881835938	-775.803161621094	-16.4681396484375	1450.684326171875	-799.8484497070315	245.7513580322266	1549.916381835938	-869.8045043945315	258.5613403320313	1556.604858398438	-800.6829833984377	320.7365722656251	1593.019165039063	-873.4329223632815	-233.4952392578126	1061.750610351563	-1131.266723632813	-253.9528045654297	1083.906372070313	-881.493835449219	-412.3748474121095	1117.171020507813	-1020.390625	-423.4797973632814	1086.808227539063	-1047.057495117188	-426.5270385742189	1089.11279296875	-990.6933593750002	-267.6716003417969	739.2117309570314	-1164.614624023438	-238.1817169189454	660.3886718750001	-1151.176025390625	-192.5769805908204	666.4949951171876	-1128.688720703125	-266.5478515625001	612.4083251953126	-1130.120239257813	-264.9446411132813	550.7988281250001	-1117.21240234375	-256.9972229003907	550.7640380859376	-998.131774902344	-250.1436004638672	363.8777160644532	-1031.927856445313	-297.9299011230469	322.1040954589844	-1094.177856445313	-262.6730957031251	316.1618347167969	-1064.8291015625	-284.4106750488282	241.3004608154297	-1030.197875976563	-382.1220703125001	117.5972442626953	-1040.502563476563	-341.5152587890626	134.5999603271485	-970.2758789062502	-432.7377319335939	100.5939407348633	-982.8177490234377	-233.8988952636719	48.0938186645508	-976.3912353515627	-225.4107818603516	45.62388229370118	-1026.425415039063	-271.2708129882813	33.98021316528321	-1073.314086914063	-284.8129577636719	812.302673339844	-805.6806640625002	-245.7578582763672	758.3272705078126	-794.0238037109377	-212.927474975586	760.4465332031251	-797.8316040039065	-270.9008789062501	676.2066650390626	-799.2183837890627	-264.6813049316407	570.8638916015626	-806.6315917968752	-258.2155456542969	557.2649536132814	-919.5760498046877	-383.6881103515626	447.9986877441407	-835.3408203125002	-492.660125732422	486.0938110351564	-819.0915527343752	-468.5496520996095	444.9010314941407	-820.786804199219	-505.6450805664064	411.7954711914064	-853.0372314453127	-640.9715576171876	421.9688720703126	-843.588073730469	-615.4876708984376	388.3196105957032	-916.863708496094	-683.2814331054689	460.3700561523439	-920.6872558593752	-657.5096435546876	248.5513305664063	-885.2701416015627	-663.0123291015626	254.244125366211	-838.461608886719	-698.2174072265626	295.9463195800782	-805.587585449219	nan	nan	nan	nan	nan	nan	
422	2.105	-231.3574829101563	1773.445922851563	-1054.842041015625	-384.1010742187501	1716.165893554688	-1115.51953125	-376.0666809082032	1703.030517578125	-970.8422851562502	-421.1111755371095	1533.038208007813	-1042.677490234375	-408.6473388671876	1253.59228515625	-1029.383911132813	-278.3982849121094	1517.294555664063	-1054.491821289063	-349.5392456054688	1553.532836914063	-1194.815673828125	-192.9932098388672	1485.192016601563	-1331.56103515625	-164.995590209961	1522.38623046875	-1311.407836914063	-125.4560317993164	1494.764404296875	-1346.087280273438	-62.65392684936525	1499.645263671875	-1352.3173828125	-48.30690002441408	1426.90673828125	-1324.992919921875	216.5975036621094	1522.787353515625	-1231.4677734375	230.0087585449219	1524.78759765625	-1302.580078125	287.8280639648438	1561.82177734375	-1215.59814453125	-330.2864074707032	1550.331909179688	-910.6624755859377	-168.8040008544922	1526.024169921875	-797.1965942382815	-135.2949981689453	1541.556640625	-829.433288574219	-99.90676116943362	1524.727294921875	-782.8018798828127	-26.16252517700196	1526.225341796875	-775.8362426757815	-16.19275093078614	1450.617065429688	-799.845397949219	245.9268493652344	1549.761840820313	-869.731384277344	258.7781982421876	1556.538940429688	-800.6118164062502	320.9805603027344	1592.948852539063	-873.4775390625002	-233.5062866210938	1061.6103515625	-1131.3583984375	-253.7767639160157	1083.739501953125	-881.5764770507815	-412.2408752441407	1117.045532226563	-1020.403259277344	-423.3397827148439	1086.658203125	-1047.079711914063	-426.4832458496095	1089.016479492188	-990.750183105469	-267.4583435058594	739.0895996093751	-1164.741821289063	-237.9579010009766	660.3779907226564	-1151.2216796875	-192.3708648681641	666.3922119140626	-1128.781372070313	-266.6425781250001	612.5590820312501	-1130.228393554688	-264.6478576660157	550.7413330078126	-1117.268432617188	-256.8888549804688	550.7335205078126	-998.155212402344	-249.9899902343751	363.7237548828126	-1031.873779296875	-297.7825317382813	322.0398559570313	-1094.151000976563	-262.4660339355469	315.9753723144532	-1064.750244140625	-284.2618103027344	241.2356567382813	-1030.160522460938	-382.3168945312501	117.2970428466797	-1040.533081054688	-341.5166015625001	134.602783203125	-970.2204589843752	-432.5625915527345	100.3109817504883	-983.3787841796877	-233.9373474121094	48.05934906005861	-976.3155517578127	-225.4136199951172	45.54357528686524	-1026.491943359375	-271.2611999511719	33.98522567749024	-1073.33203125	-285.1757812500001	812.2622070312502	-805.6160278320315	-246.2027435302735	758.1610107421876	-793.9814453125002	-213.413314819336	760.0819702148439	-797.8850708007815	-271.6657714843751	676.0797119140626	-799.1350708007815	-265.3417358398438	570.8834838867189	-806.4650878906252	-259.0502319335938	556.9176635742189	-919.4636230468752	-384.6304931640626	447.6768798828126	-835.2933349609377	-493.4529418945314	486.2253723144532	-818.821472167969	-469.3806152343751	444.724822998047	-820.8752441406252	-506.5567626953126	411.6836853027345	-853.2606201171877	-641.8742675781251	421.9275512695314	-843.4714965820315	-616.4215698242189	388.4231872558595	-916.8345336914065	-683.7769165039064	460.6400146484376	-920.7298583984377	-659.0721435546876	249.4639739990235	-885.6400146484377	-664.8608398437501	254.3419342041016	-838.8706665039065	-700.0592041015626	295.6923217773438	-806.0320434570315	nan	nan	nan	nan	nan	nan	
